<svg xmlns="http://www.w3.org/2000/svg" viewBox="0 0 64 64"><g id="Layer_4" data-name="Layer 4"><path d="M55.882.528A1,1,0,0,0,55,0H39a1,1,0,0,0-.832.445L32,9.7,25.832.445A1,1,0,0,0,25,0H9a1,1,0,0,0-.832,1.555L22.055,22.386a22,22,0,1,0,19.89,0L55.832,1.555A1,1,0,0,0,55.882.528ZM49.131,2,38,18.7l-2.8-4.2L43.535,2Zm-9.6,0h1.6L34,12.7l-.8-1.2Zm-2.71,18.54q-.9-.2-1.816-.329L22.868,2h1.6ZM20.465,2,32.473,20.012c-.158,0-.314-.012-.473-.012a21.955,21.955,0,0,0-4.779.529L14.869,2Zm-9.6,0h1.6L25.188,21.085q-.652.213-1.286.466ZM52,42A20,20,0,1,1,32,22,20.023,20.023,0,0,1,52,42ZM40.1,21.551c-.089-.035-.176-.071-.265-.1L39.2,20.5,51.535,2h1.6Z"/><path d="M14,42A18,18,0,1,0,32,24,18.021,18.021,0,0,0,14,42Zm34,0A16,16,0,1,1,32,26,16.019,16.019,0,0,1,48,42Z"/></g></svg>